<?xml version="1.0" encoding="UTF-8"?>
<svg version="1.1" xmlns="http://www.w3.org/2000/svg" width="217" height="81">
<path d="M0 0 C0.66 1.98 1.32 3.96 2 6 C2.33 5.34 2.66 4.68 3 4 C4.65 4 6.3 4 8 4 C8.495 4.99 8.495 4.99 9 6 C9.66 4.02 10.32 2.04 11 0 C14.53025839 -0.30609177 16.42281767 -0.38354697 19.421875 1.609375 C20.19015625 2.31578125 20.9584375 3.0221875 21.75 3.75 C26.50116389 7.82242619 31.07699622 10.08447537 37 12 C36.67 12.99 36.34 13.98 36 15 C26.82696627 16.63076155 18.57985934 16.9721571 10 13 C9.505 12.505 9.505 12.505 9 12 C8.67 13.32 8.34 14.64 8 16 C8.9075 15.773125 9.815 15.54625 10.75 15.3125 C14 15 14 15 16.375 16.4375 C16.91125 16.953125 17.4475 17.46875 18 18 C17.56802365 22.7517398 16.67230705 24.92000054 13 28 C13.66 28.99 14.32 29.98 15 31 C15.37478243 34.52295483 15.41127245 36.34881863 13.5 39.375 C13.005 39.91125 12.51 40.4475 12 41 C12.350625 41.5775 12.70125 42.155 13.0625 42.75 C14 45 14 45 13.9375 46.875 C12.49772775 50.13848378 10.45177677 52.4341871 8 55 C5.6875 55.875 5.6875 55.875 4 56 C3.3503125 54.8553125 3.3503125 54.8553125 2.6875 53.6875 C1.19519749 51.03269477 1.19519749 51.03269477 -0.6875 49.5 C-2 48 -2 48 -2.3125 45.5 C-2 43 -2 43 0 40 C-0.680625 39.443125 -1.36125 38.88625 -2.0625 38.3125 C-4 36 -4 36 -3.875 33.3125 C-3 31 -3 31 -1 30 C-0.67 29.01 -0.34 28.02 0 27 C-1.175625 26.690625 -1.175625 26.690625 -2.375 26.375 C-5 25 -5 25 -6.3125 21.875 C-6.6528125 20.451875 -6.6528125 20.451875 -7 19 C-3.67692308 15.06153846 -3.67692308 15.06153846 -0.25 14.75 C0.4925 14.8325 1.235 14.915 2 15 C2 14.34 2 13.68 2 13 C0.906875 13.495 -0.18625 13.99 -1.3125 14.5 C-8.61086018 17.24335524 -16.46106814 16.34025455 -24 15 C-24.33 14.01 -24.66 13.02 -25 12 C-24.38253906 11.8040625 -23.76507813 11.608125 -23.12890625 11.40625 C-16.84876787 9.18860601 -12.80634502 6.42342953 -8.203125 1.609375 C-5.34560297 -0.47803471 -3.45681031 -0.29629803 0 0 Z M-5 2 C-5.33 2.66 -5.66 3.32 -6 4 C-5.01 4 -4.02 4 -3 4 C-2.67 4.99 -2.34 5.98 -2 7 C-1.67 7 -1.34 7 -1 7 C-1 5.35 -1 3.7 -1 2 C-2.32 2 -3.64 2 -5 2 Z M13 2 C13 3.32 13 4.64 13 6 C14.65 5.34 16.3 4.68 18 4 C17.34 3.34 16.68 2.68 16 2 C15.01 2 14.02 2 13 2 Z M0 20 C0 20.66 0 21.32 0 22 C1.32 22.33 2.64 22.66 4 23 C4 21.68 4 20.36 4 19 C1.9254644 18.8509288 1.9254644 18.8509288 0 20 Z M8 20 C8.33 20.99 8.66 21.98 9 23 C9.99 22.01 10.98 21.02 12 20 C10.68 20 9.36 20 8 20 Z M2 32 C3 35 3 35 3 35 Z M8 32 C8.33 32.99 8.66 33.98 9 35 C9 34.01 9 33.02 9 32 C8.67 32 8.34 32 8 32 Z M2 46 C3 48 3 48 3 48 Z M8 46 C9 49 9 49 9 49 Z " fill="#020202" transform="translate(36,20)"/>
<path d="M0 0 C1.44922995 0.08791407 2.90186654 0.12784603 4.35375977 0.12939453 C5.63012047 0.13412277 5.63012047 0.13412277 6.93226624 0.13894653 C7.84278244 0.1369223 8.75329865 0.13489807 9.69140625 0.1328125 C11.10388893 0.13424759 11.10388893 0.13424759 12.54490662 0.13571167 C14.53278673 0.13639138 16.52066909 0.13455169 18.50854492 0.13037109 C21.55457527 0.12501394 24.60045857 0.13032625 27.64648438 0.13671875 C29.57812533 0.13605805 31.50976619 0.13477705 33.44140625 0.1328125 C34.35394669 0.13483673 35.26648712 0.13686096 36.2066803 0.13894653 C37.05443527 0.13579437 37.90219025 0.13264221 38.77563477 0.12939453 C39.52079849 0.12859894 40.26596222 0.12780334 41.03370667 0.12698364 C43.21440474 0.06988263 43.21440474 0.06988263 46 -1 C48.4700084 -1.09833757 50.90561421 -1.13905722 53.375 -1.125 C54.68210937 -1.12757812 55.98921875 -1.13015625 57.3359375 -1.1328125 C60.98886261 -1.0749718 64.60198106 -0.80553685 68.2421875 -0.5 C74.75641071 0.02675405 81.21688025 0.15178506 87.75 0.125 C88.90234131 0.1237915 90.05468262 0.12258301 91.24194336 0.12133789 C100.37405714 0.08088349 109.48461591 -0.22375509 118.60253906 -0.73193359 C124.84419081 -1.04811286 130.80188697 -0.81279781 137 0 C137 1.32 137 2.64 137 4 C132.68794313 4.19876838 128.37535556 4.38196186 124.0625 4.5625 C122.85013672 4.61857422 121.63777344 4.67464844 120.38867188 4.73242188 C113.76607969 5.00163294 107.56727283 4.84076981 101 4 C99.6414285 4.12581184 98.2861031 4.29308261 96.9375 4.5 C92.6049456 5.05016564 89.28610492 4.68883829 85 4 C85 3.34 85 2.68 85 2 C84.01 2 83.02 2 82 2 C82 2.66 82 3.32 82 4 C80.14375 3.9690625 80.14375 3.9690625 78.25 3.9375 C74.66176827 3.92881851 71.18044737 4.15935165 67.61328125 4.53515625 C60.35510638 5.16424265 53.20453663 4.84692811 45.9375 4.5 C43.36350955 4.38039787 40.78929122 4.26557403 38.21484375 4.15625 C37.09198975 4.10275391 35.96913574 4.04925781 34.81225586 3.99414062 C31.91761253 3.85287889 31.91761253 3.85287889 29 5 C27.66263541 4.68322745 26.32982634 4.34706023 25 4 C23.0482673 3.91940003 21.09399582 3.89237757 19.140625 3.90234375 C18.02558594 3.90556641 16.91054687 3.90878906 15.76171875 3.91210938 C14.02341797 3.92467773 14.02341797 3.92467773 12.25 3.9375 C11.07566406 3.94201172 9.90132812 3.94652344 8.69140625 3.95117188 C5.79421928 3.96294906 2.89713546 3.97939674 0 4 C0 3.34 0 2.68 0 2 C-0.66 2 -1.32 2 -2 2 C-2 2.66 -2 3.32 -2 4 C-7.28 4 -12.56 4 -18 4 C-18 2.68 -18 1.36 -18 0 C-17.11248047 0.01740234 -17.11248047 0.01740234 -16.20703125 0.03515625 C-10.65042974 0.09860847 -5.33635853 -1.33804581 0 0 Z " fill="#030303" transform="translate(75,55)"/>
<path d="M0 0 C1.62207674 -0.05060789 3.24460254 -0.08698516 4.8671875 -0.1171875 C5.77065918 -0.13894043 6.67413086 -0.16069336 7.60498047 -0.18310547 C10 0 10 0 12.125 1.875 C13.6708513 7.39589752 13.7443543 12.56844263 12.0625 18.0625 C8.89851775 21.03472575 5.24329038 21.11833878 1 21 C0 20 0 20 -0.11352539 18.05053711 C-0.10567017 16.8015564 -0.10567017 16.8015564 -0.09765625 15.52734375 C-0.09443359 14.62822266 -0.09121094 13.72910156 -0.08789062 12.80273438 C-0.07951172 11.85720703 -0.07113281 10.91167969 -0.0625 9.9375 C-0.05798828 8.98810547 -0.05347656 8.03871094 -0.04882812 7.06054688 C-0.0370011 4.70696935 -0.02052025 2.35351523 0 0 Z M5 4 C5 7.96 5 11.92 5 16 C5.99 15.67 6.98 15.34 8 15 C8 11.7 8 8.4 8 5 C7.01 4.67 6.02 4.34 5 4 Z " fill="#010101" transform="translate(75,29)"/>
<path d="M0 0 C2.9375 1.0625 2.9375 1.0625 4.8125 2.9375 C6.51411358 7.66420439 6.59130065 12.09955873 5.9375 17.0625 C4.375 20.3125 4.375 20.3125 1.9375 22.0625 C-1.6875 22.0625 -1.6875 22.0625 -5.0625 21.0625 C-7.49186835 17.41844748 -7.39197342 15.463683 -7.4375 11.125 C-7.48003906 9.28615234 -7.48003906 9.28615234 -7.5234375 7.41015625 C-7.0625 4.0625 -7.0625 4.0625 -5.23046875 1.625 C-3.0625 0.0625 -3.0625 0.0625 0 0 Z M-2.0625 5.0625 C-2.0625 9.0225 -2.0625 12.9825 -2.0625 17.0625 C-1.0725 17.0625 -0.0825 17.0625 0.9375 17.0625 C0.9375 13.4325 0.9375 9.8025 0.9375 6.0625 C-0.0525 5.7325 -1.0425 5.4025 -2.0625 5.0625 Z " fill="#010101" transform="translate(100.0625,27.9375)"/>
<path d="M0 0 C2.14915785 3.22373677 2.38286803 4.26703674 2 8 C1.34 8.66 0.68 9.32 0 10 C0.66 10.66 1.32 11.32 2 12 C1.8125 15.5 1.8125 15.5 1 19 C-2.24153166 21.1610211 -3.23692901 21.64247553 -7 21 C-9.375 18.75 -9.375 18.75 -11 16 C-10.75 13.6875 -10.75 13.6875 -10 12 C-6.73045798 12.56371414 -5.17424117 13.49962266 -3 16 C-4.33333333 14.66666667 -5.66666667 13.33333333 -7 12 C-7.556875 11.505 -8.11375 11.01 -8.6875 10.5 C-10.34986716 8.60015182 -10.85110407 7.53123086 -11 5 C-8.17092184 -0.79287433 -6.22715893 -1.55678973 0 0 Z M-5 4 C-5 4.99 -5 5.98 -5 7 C-4.34 7.33 -3.68 7.66 -3 8 C-3 6.68 -3 5.36 -3 4 C-3.66 4 -4.32 4 -5 4 Z " fill="#010101" transform="translate(175,29)"/>
<path d="M0 0 C2.875 0.875 2.875 0.875 4.875 2.875 C5 6 5 6 4.875 8.875 C3.225 8.545 1.575 8.215 -0.125 7.875 C-0.125 6.885 -0.125 5.895 -0.125 4.875 C-0.785 4.875 -1.445 4.875 -2.125 4.875 C-2.125 8.835 -2.125 12.795 -2.125 16.875 C-1.465 16.875 -0.805 16.875 -0.125 16.875 C0.205 15.555 0.535 14.235 0.875 12.875 C2.195 12.875 3.515 12.875 4.875 12.875 C5.23164336 18.22465035 5.23164336 18.22465035 3.8125 20.8125 C0.69151045 22.5240104 -1.77033884 21.66791991 -5.125 20.875 C-7.95683525 18.04316475 -7.49282849 15.28655565 -7.5 11.5 C-7.52449219 10.82710937 -7.54898438 10.15421875 -7.57421875 9.4609375 C-7.59445787 6.03377929 -7.34859605 4.1788613 -5.296875 1.390625 C-3.125 -0.125 -3.125 -0.125 0 0 Z " fill="#050101" transform="translate(119.125,28.125)"/>
<path d="M0 0 C1.98 0 3.96 0 6 0 C8.28584898 6.55276707 8.60594368 13.10401439 9 20 C8.01 20.33 7.02 20.66 6 21 C5.67 20.01 5.34 19.02 5 18 C4.01 18 3.02 18 2 18 C2 18.66 2 19.32 2 20 C0.35 20 -1.3 20 -3 20 C-2.68955976 17.60388361 -2.37671642 15.20812165 -2.0625 12.8125 C-1.97548828 12.13896484 -1.88847656 11.46542969 -1.79882812 10.77148438 C-1.32174523 7.14918834 -0.76987965 3.57196415 0 0 Z " fill="#000000" transform="translate(150,29)"/>
<path d="M0 0 C3.63 0 7.26 0 11 0 C11 1.32 11 2.64 11 4 C9.02 4 7.04 4 5 4 C5 5.32 5 6.64 5 8 C6.98 8 8.96 8 11 8 C11 9.32 11 10.64 11 12 C9.02 12 7.04 12 5 12 C5 13.32 5 14.64 5 16 C6.98 16 8.96 16 11 16 C11 17.32 11 18.64 11 20 C9.54263913 20.19491452 8.08405407 20.38069358 6.625 20.5625 C5.81289062 20.66691406 5.00078125 20.77132812 4.1640625 20.87890625 C2 21 2 21 0 20 C0 13.4 0 6.8 0 0 Z " fill="#000000" transform="translate(183,29)"/>
<path d="M0 0 C3.3 0 6.6 0 10 0 C10 1.32 10 2.64 10 4 C8.02 4 6.04 4 4 4 C5.63473516 7.12474627 5.63473516 7.12474627 8.125 7.6875 C8.74375 7.790625 9.3625 7.89375 10 8 C10.33 9.32 10.66 10.64 11 12 C8.69 12 6.38 12 4 12 C4 13.32 4 14.64 4 16 C5.98 16 7.96 16 10 16 C10 17.32 10 18.64 10 20 C5.97128525 21.03595522 4.34944269 20.86988854 0 20 C0 13.4 0 6.8 0 0 Z " fill="#000000" transform="translate(131,29)"/>
<path d="M0 0 C1.32 0 2.64 0 4 0 C4 0.99 4 1.98 4 3 C4.66 3 5.32 3 6 3 C6 4.32 6 5.64 6 7 C5.34 7 4.68 7 4 7 C4 7.99 4 8.98 4 10 C2.35 9.67 0.7 9.34 -1 9 C-1 8.34 -1 7.68 -1 7 C-1.66 7 -2.32 7 -3 7 C-3 5.68 -3 4.36 -3 3 C-2.34 3 -1.68 3 -1 3 C-0.67 2.01 -0.34 1.02 0 0 Z " fill="#010101" transform="translate(40,13)"/>
<path d="M0 0 C5.75 -0.125 5.75 -0.125 8 1 C7.67 1.99 7.34 2.98 7 4 C4.525 3.01 4.525 3.01 2 2 C1.67 3.65 1.34 5.3 1 7 C0.34 7 -0.32 7 -1 7 C-0.67 4.69 -0.34 2.38 0 0 Z " fill="#0A0A0A" transform="translate(47,20)"/>
<path d="M0 0 C1.98 0 3.96 0 6 0 C6.33 1.65 6.66 3.3 7 5 C6.01 5.495 6.01 5.495 5 6 C5 4.68 5 3.36 5 2 C3.02 2.33 1.04 2.66 -1 3 C-0.67 2.01 -0.34 1.02 0 0 Z " fill="#0B0B0A" transform="translate(30,20)"/>
</svg>
